<?xml version="1.0" standalone="no"?><svg xmlns="http://www.w3.org/2000/svg" viewBox="0 0 1440 320"><path fill="#146189" fill-opacity="1" d="M0,128L21.8,133.3C43.6,139,87,149,131,149.3C174.5,149,218,139,262,144C305.5,149,349,171,393,186.7C436.4,203,480,213,524,197.3C567.3,181,611,139,655,117.3C698.2,96,742,96,785,112C829.1,128,873,160,916,181.3C960,203,1004,213,1047,181.3C1090.9,149,1135,75,1178,85.3C1221.8,96,1265,192,1309,229.3C1352.7,267,1396,245,1418,234.7L1440,224L1440,320L1418.2,320C1396.4,320,1353,320,1309,320C1265.5,320,1222,320,1178,320C1134.5,320,1091,320,1047,320C1003.6,320,960,320,916,320C872.7,320,829,320,785,320C741.8,320,698,320,655,320C610.9,320,567,320,524,320C480,320,436,320,393,320C349.1,320,305,320,262,320C218.2,320,175,320,131,320C87.3,320,44,320,22,320L0,320Z"></path></svg>